<svg width="500" height="500" viewBox="0 0 500 500" fill="none" xmlns="http://www.w3.org/2000/svg">
<g clip-path="url(#clip0_1_2)">
<path d="M416.462 409.546C430.119 418.287 448.47 414.362 455.377 399.691C468.465 371.893 475.817 341.63 476.869 310.719C478.254 269.991 468.651 229.642 449.066 193.905C429.481 158.168 400.637 128.363 365.562 107.617C330.486 86.8713 290.473 75.9502 249.722 76.0002C208.97 76.0501 168.984 87.0693 133.96 107.901C98.9352 128.733 70.1644 158.609 50.6672 194.393C31.17 230.178 21.6653 270.551 23.1509 311.275C24.2784 342.183 31.7048 372.428 44.8603 400.194C51.8031 414.848 70.164 418.728 83.7997 409.953V409.953C97.4353 401.179 101.104 383.07 94.8296 368.118C87.0061 349.475 82.5746 329.499 81.8318 309.135C80.7305 278.945 87.7765 249.015 102.23 222.487C116.684 195.96 138.012 173.812 163.977 158.369C189.941 142.926 219.584 134.757 249.794 134.72C280.004 134.683 309.666 142.779 335.669 158.158C361.671 173.538 383.053 195.633 397.572 222.125C412.091 248.618 419.21 278.53 418.183 308.722C417.49 329.088 413.107 349.075 405.33 367.737C399.092 382.705 402.805 400.804 416.462 409.546V409.546Z" fill="#D9D9D9"/>
<path d="M292.59 110.003C296.084 94.1693 286.07 78.298 269.917 76.8753C235.244 73.8213 200.194 78.7721 167.521 91.5142C125.693 107.827 89.642 136.177 63.9262 172.979C38.2104 209.781 23.9852 253.382 23.0493 298.268C22.3183 333.33 29.7213 367.946 44.5113 399.454C51.4012 414.133 69.7481 418.079 83.4152 409.354V409.354C97.0824 400.628 100.816 382.532 94.5957 367.558C85.6829 346.103 81.2678 322.932 81.7565 299.492C82.4502 266.217 92.9957 233.894 112.059 206.612C131.123 179.33 157.849 158.314 188.857 146.221C210.699 137.702 233.975 133.881 257.187 134.873C273.387 135.566 289.096 125.837 292.59 110.003V110.003Z" fill="#606EEC"/>
</g>
<defs>
<clipPath id="clip0_1_2">
<rect width="500" height="500" fill="white"/>
</clipPath>
</defs>
</svg>
